<svg id="notification" xmlns="http://www.w3.org/2000/svg" width="40" height="40" viewBox="0 0 40 40">
  <g id="Path_18" data-name="Path 18" fill="none" opacity="0">
    <path d="M0,0H40V40H0Z" stroke="none"/>
    <path d="M 1 1 L 1 39 L 39 39 L 39 1 L 1 1 M 0 0 L 40 0 L 40 40 L 0 40 L 0 0 Z" stroke="none" fill="#707070"/>
  </g>
  <g id="Group_26" data-name="Group 26" transform="translate(-13.5 -162.9)">
    <path id="Path_16" data-name="Path 16" d="M24.977,1709.411h18.9s-1.147-2.449-2.449-2.449c0-6.7-3.228-13.062-7.158-13.062s-7.1,6.5-7.1,13.062C25.952,1706.962,24.977,1709.411,24.977,1709.411Z" transform="translate(-0.477 -1520)" fill="none" stroke="#564787" stroke-linejoin="round" stroke-width="2"/>
    <path id="Path_17" data-name="Path 17" d="M34.272,1711.809a3.258,3.258,0,0,1-3.364-2.364h6.409A2.763,2.763,0,0,1,34.272,1711.809Z" transform="translate(-0.408 -1520)" fill="none" stroke="#564787" stroke-width="1"/>
  </g>
</svg>
