<svg width="36px" height="36px" viewBox="0 0 36 36" version="1.1" xmlns="http://www.w3.org/2000/svg" xmlns:xlink="http://www.w3.org/1999/xlink" xml:space="preserve" xmlns:serif="http://www.serif.com/" style="fill-rule:evenodd;clip-rule:evenodd;stroke-linejoin:round;stroke-miterlimit:2;"><g id="facebook"><path id="Icon_awesome-facebook-square" d="M30.125,2l-24.75,0c-1.851,0 -3.375,1.524 -3.375,3.375l0,24.75c0,1.851 1.524,3.375 3.375,3.375l9.65,0l0,-10.709l-4.425,0l0,-5.041l4.43,0l0,-3.842c0,-4.37 2.6,-6.784 6.586,-6.784c1.307,0.018 2.61,0.132 3.9,0.34l0,4.286l-2.2,0c-0.11,-0.015 -0.22,-0.022 -0.331,-0.022c-1.383,0 -2.521,1.138 -2.521,2.521c0,0.075 0.003,0.15 0.01,0.224l0,3.277l4.836,0l-0.773,5.041l-4.062,0l0,10.709l9.65,0c1.851,0 3.375,-1.524 3.375,-3.375l0,-24.75c0,-1.851 -1.524,-3.375 -3.375,-3.375Z" style="fill-rule:nonzero;"/></g></svg>