<svg width="36px" height="36px" viewBox="0 0 36 36" version="1.1" xmlns="http://www.w3.org/2000/svg" xmlns:xlink="http://www.w3.org/1999/xlink" xml:space="preserve" xmlns:serif="http://www.serif.com/" style="fill-rule:evenodd;clip-rule:evenodd;stroke-linejoin:round;stroke-miterlimit:2;"><g id="instagram"><path id="Icon_awesome-instagram" d="M18.365,9.921c-4.432,0 -8.079,3.647 -8.079,8.079c0,4.432 3.647,8.079 8.079,8.079c4.432,0 8.079,-3.647 8.079,-8.079c0,-0.004 0,-0.009 0,-0.013c0,-4.425 -3.641,-8.066 -8.066,-8.066c-0.004,0 -0.009,0 -0.013,0Zm0,13.331c-2.881,0 -5.252,-2.371 -5.252,-5.252c0,-2.881 2.371,-5.252 5.252,-5.252c2.881,0 5.252,2.371 5.252,5.252c-0.005,2.879 -2.373,5.247 -5.252,5.252Zm10.294,-13.661c0,1.034 -0.85,1.884 -1.884,1.884c-1.034,0 -1.884,-0.85 -1.884,-1.884c0,-1.033 0.85,-1.883 1.883,-1.884c0.002,0 0.003,0 0.005,0c1.031,0 1.88,0.849 1.88,1.88c0,0.001 0,0.003 0,0.004Zm5.349,1.916c0.051,-2.448 -0.863,-4.82 -2.545,-6.6c-1.783,-1.676 -4.153,-2.59 -6.6,-2.545c-2.6,-0.148 -10.4,-0.148 -13,0c-2.446,-0.048 -4.816,0.863 -6.6,2.538c-1.679,1.782 -2.593,4.153 -2.545,6.6c-0.148,2.6 -0.148,10.4 0,13c-0.051,2.448 0.863,4.82 2.545,6.6c1.784,1.675 4.153,2.588 6.6,2.545c2.6,0.148 10.4,0.148 13,0c2.448,0.051 4.82,-0.863 6.6,-2.545c1.676,-1.783 2.59,-4.153 2.545,-6.6c0.148,-2.6 0.148,-10.392 0,-12.994l0,0.001Zm-3.359,15.781c-0.54,1.372 -1.628,2.46 -3,3c-2.074,0.823 -7,0.633 -9.288,0.633c-2.288,0 -7.221,0.183 -9.288,-0.633c-1.372,-0.54 -2.46,-1.628 -3,-3c-0.823,-2.074 -0.633,-7 -0.633,-9.288c0,-2.288 -0.183,-7.221 0.633,-9.288c0.54,-1.372 1.628,-2.46 3,-3c2.074,-0.823 7,-0.633 9.288,-0.633c2.288,0 7.221,-0.183 9.288,0.633c1.372,0.54 2.46,1.628 3,3c0.823,2.074 0.633,7 0.633,9.288c0,2.288 0.189,7.221 -0.633,9.288Z" style="fill-rule:nonzero;"/></g></svg>