<svg xmlns="http://www.w3.org/2000/svg" width="68" height="15" viewBox="0 0 68 15">
  <g id="SULPAK" transform="translate(0.198 -0.468)">
    <rect id="Rectangle_139" data-name="Rectangle 139" width="68" height="15" transform="translate(-0.198 0.468)" fill="none"/>
    <g id="_2594021798960" transform="translate(0 1.405)">
      <path id="Path_99" data-name="Path 99" d="M106.627,29.469a4.7,4.7,0,0,1-1.437-.562l.773-1.808a4.329,4.329,0,0,0,1.193.508,5.235,5.235,0,0,0,1.37.187,2.161,2.161,0,0,0,.889-.131.417.417,0,0,0,.264-.382c0-.168-.106-.286-.318-.355a6.653,6.653,0,0,0-1.012-.2,9.86,9.86,0,0,1-1.5-.291,2.312,2.312,0,0,1-1.065-.668,1.935,1.935,0,0,1-.446-1.362,2.1,2.1,0,0,1,.419-1.286,2.805,2.805,0,0,1,1.229-.89,5.151,5.151,0,0,1,1.932-.327,7.629,7.629,0,0,1,1.586.167,4.5,4.5,0,0,1,1.316.473l-.773,1.794a4.211,4.211,0,0,0-2.116-.557,2.058,2.058,0,0,0-.9.146.433.433,0,0,0-.284.382.38.38,0,0,0,.311.369,7.1,7.1,0,0,0,1.03.215,11.049,11.049,0,0,1,1.506.32,2.3,2.3,0,0,1,1.037.66,1.915,1.915,0,0,1,.441,1.341,2.068,2.068,0,0,1-.421,1.272,2.739,2.739,0,0,1-1.24.884,5.464,5.464,0,0,1-1.973.318,7.671,7.671,0,0,1-1.818-.215Z" transform="translate(-87.485 -19.353)" fill="#dbcbd8"/>
      <path id="Path_100" data-name="Path 100" d="M162.338,22.65v7.534h-2.456v-.806a2.635,2.635,0,0,1-.976.7,3.1,3.1,0,0,1-1.207.236,3.04,3.04,0,0,1-2.272-.862,3.551,3.551,0,0,1-.847-2.585V22.65h2.577v3.78a1.981,1.981,0,0,0,.311,1.237,1.1,1.1,0,0,0,.909.389,1.264,1.264,0,0,0,1-.438,1.982,1.982,0,0,0,.387-1.341V22.65Z" transform="translate(-128.562 -19.977)" fill="#dbcbd8"/>
      <path id="Path_101" data-name="Path 101" d="M212.51,6.78h2.577V16.985H212.51Z" transform="translate(-176.741 -6.778)" fill="#dbcbd8"/>
      <path id="Path_102" data-name="Path 102" d="M244.934,27.106a2.2,2.2,0,0,0,0-2.627,1.528,1.528,0,0,0-2.223,0,2.2,2.2,0,0,0,0,2.627,1.528,1.528,0,0,0,2.223,0Zm1.256-4.726a3.467,3.467,0,0,1,1.3,1.363,4.606,4.606,0,0,1,0,4.1,3.463,3.463,0,0,1-1.3,1.362,3.551,3.551,0,0,1-1.825.48,2.708,2.708,0,0,1-2.048-.791v3.328H239.74V22.026h2.454v.751a2.646,2.646,0,0,1,2.171-.877A3.551,3.551,0,0,1,246.19,22.38Z" transform="translate(-199.388 -19.353)" fill="#dbcbd8"/>
      <path id="Path_103" data-name="Path 103" d="M298.535,27.794a1.233,1.233,0,0,0,.488-.653v-.653H297.91c-.751,0-1.124.254-1.124.764a.676.676,0,0,0,.258.555,1.084,1.084,0,0,0,.705.209A1.4,1.4,0,0,0,298.535,27.794Zm2.1-5.039a3.331,3.331,0,0,1,.963,2.621V29.56h-2.4v-.973a2.2,2.2,0,0,1-2.17,1.1,3.33,3.33,0,0,1-1.479-.3,2.211,2.211,0,0,1-.943-.828,2.234,2.234,0,0,1-.318-1.188,1.944,1.944,0,0,1,.8-1.661,4.17,4.17,0,0,1,2.469-.591h1.464q-.068-1.194-1.56-1.2a3.488,3.488,0,0,0-1.07.173,2.832,2.832,0,0,0-.922.48l-.869-1.793a4.686,4.686,0,0,1,1.486-.646,6.88,6.88,0,0,1,1.756-.231A4.089,4.089,0,0,1,300.637,22.755Z" transform="translate(-244.756 -19.353)" fill="#dbcbd8"/>
      <path id="Path_104" data-name="Path 104" d="M352.736,14.336l-.759.791v1.85H349.4V6.77h2.577v5.3l2.631-2.627h3.052l-3.052,3.225,3.309,4.309H354.8Z" transform="translate(-290.59 -6.77)" fill="#dbcbd8"/>
      <path id="Path_105" data-name="Path 105" d="M3.217,13.213h3.36L9.348,6.78H3.217a3.217,3.217,0,0,0,0,6.433Z" transform="translate(0 -6.778)" fill="#dbcbd8"/>
      <path id="Path_106" data-name="Path 106" d="M28.482,45H25.124L22.35,51.433h6.132a3.217,3.217,0,1,0,0-6.433Z" transform="translate(-18.588 -38.565)" fill="#dbcbd8"/>
    </g>
  </g>
</svg>
