<svg id="TECHNODOM" xmlns="http://www.w3.org/2000/svg" width="85.627" height="10.071" viewBox="0 0 85.627 10.071">
  <g id="home-page_aliexpress" transform="translate(0 0)">
    <g id="Group-15">
      <g id="_1" transform="translate(53.256 0.145)">
        <path id="Shape" d="M3.79,2.9H5.153a3.825,3.825,0,0,1,1.288.218,1.666,1.666,0,0,1,.8.618,2.2,2.2,0,0,1,.341.945,3.214,3.214,0,0,1-.076,1.2,3.973,3.973,0,0,1-.379,1.127,4.147,4.147,0,0,1-.682.909,4.024,4.024,0,0,1-.985.618,3.991,3.991,0,0,1-1.288.218H2.653L3.79,2.9ZM15.075,8.863a2.788,2.788,0,0,1-1.212-.254,1.938,1.938,0,0,1-.757-.691,2.35,2.35,0,0,1-.341-.982,2.979,2.979,0,0,1,.076-1.163,4.292,4.292,0,0,1,.417-1.163,3.693,3.693,0,0,1,.72-.982A3.848,3.848,0,0,1,15,2.937a3.128,3.128,0,0,1,1.288-.254,2.519,2.519,0,0,1,1.174.254,1.938,1.938,0,0,1,.757.691,2.35,2.35,0,0,1,.341.982,3.956,3.956,0,0,1-.038,1.163A4.292,4.292,0,0,1,18.1,6.936a3.693,3.693,0,0,1-.72.982A3.215,3.215,0,0,1,15.075,8.863ZM14.7,10.717a6.311,6.311,0,0,0,3.333-.945,5.9,5.9,0,0,0,2.234-2.436,5.78,5.78,0,0,0,.568-1.6,5.425,5.425,0,0,0,.076-1.563,4.007,4.007,0,0,0-.417-1.345,4.17,4.17,0,0,0-.871-1.091,3.668,3.668,0,0,0-1.288-.691A5.075,5.075,0,0,0,16.7.792a6.311,6.311,0,0,0-3.333.945,5.933,5.933,0,0,0-1.288,1.054,6.328,6.328,0,0,0-1.515,2.945,5.614,5.614,0,0,0-.076,1.6,3.3,3.3,0,0,0,.417,1.345,4,4,0,0,0,.871,1.054,4.372,4.372,0,0,0,1.288.691,5.13,5.13,0,0,0,1.628.291ZM20.15,9.445c0,.036-.038.073-.038.109a.13.13,0,0,1-.038.109.769.769,0,0,0,.038.509.871.871,0,0,0,.3.327,1.252,1.252,0,0,0,.53.109,1.835,1.835,0,0,0,.644-.109,1.175,1.175,0,0,0,.417-.327,2.3,2.3,0,0,0,.3-.509l1.969-5.453h.038L25,9.845a.681.681,0,0,0,.114.364.761.761,0,0,0,.3.291,1.239,1.239,0,0,0,.606.145A1.537,1.537,0,0,0,26.7,10.5a3.172,3.172,0,0,0,.454-.291,1.307,1.307,0,0,0,.265-.364l2.916-5.635h.038l-.189,5.453a1.113,1.113,0,0,0,.076.509.651.651,0,0,0,.3.327,1.634,1.634,0,0,0,1.174,0,1.031,1.031,0,0,0,.454-.327,1.323,1.323,0,0,0,.265-.509.13.13,0,0,1,.038-.109V9.445l.076-7.489a1.247,1.247,0,0,0-.076-.364,1.14,1.14,0,0,0-.265-.327,1.574,1.574,0,0,0-.417-.254A1.252,1.252,0,0,0,31.284.9a1.7,1.7,0,0,0-.72.145,2.049,2.049,0,0,0-.606.364,2.348,2.348,0,0,0-.379.473l-2.84,5.308H26.7l-.72-5.308a1.783,1.783,0,0,0-.189-.473,1.1,1.1,0,0,0-.454-.364A1.287,1.287,0,0,0,24.694.9a1.575,1.575,0,0,0-.568.109,2.069,2.069,0,0,0-.492.254,3.37,3.37,0,0,0-.379.327.749.749,0,0,0-.227.364L20.15,9.445ZM.23,9.554a1,1,0,0,0,0,.473.856.856,0,0,0,.227.327,1.555,1.555,0,0,0,.341.182,1.34,1.34,0,0,0,.379.036H3.79a7.22,7.22,0,0,0,2.159-.327A6.166,6.166,0,0,0,7.766,9.3,5.469,5.469,0,0,0,9.092,7.845a5.73,5.73,0,0,0,.757-1.927,5.25,5.25,0,0,0,.038-2.036,3.26,3.26,0,0,0-2.2-2.545A6.257,6.257,0,0,0,5.532.974h-2.5a1.384,1.384,0,0,0-.644.145,1.556,1.556,0,0,0-.492.364,1.475,1.475,0,0,0-.265.545Z" transform="translate(-0.201 -0.792)" fill="#dbcbd8"/>
      </g>
      <path id="Shape-2" data-name="Shape" d="M48.058,8.722a2.841,2.841,0,0,1-1.25-.254,2.267,2.267,0,0,1-.871-.691,3.109,3.109,0,0,1-.53-.982,4.058,4.058,0,0,1,.038-2.327,3.109,3.109,0,0,1,.53-.982,2.669,2.669,0,0,1,.871-.691,3.013,3.013,0,0,1,2.424,0,2.669,2.669,0,0,1,.871.691,3.109,3.109,0,0,1,.53.982,3.947,3.947,0,0,1,.189,1.163A5.763,5.763,0,0,1,50.709,6.8a3.109,3.109,0,0,1-.53.982,2.669,2.669,0,0,1-.871.691,2.63,2.63,0,0,1-1.25.254ZM33.1,9.45a1.033,1.033,0,0,0,.151.582,1.18,1.18,0,0,0,.379.364,1.534,1.534,0,0,0,1.136,0,.725.725,0,0,0,.379-.364A.961.961,0,0,0,35.3,9.45V4.469h.038l4.7,5.562a1.63,1.63,0,0,0,.265.218,1.374,1.374,0,0,0,.341.145,1.211,1.211,0,0,0,.3.073,1.31,1.31,0,0,0,.568-.109.725.725,0,0,0,.379-.364.961.961,0,0,0,.151-.582V1.851a1.033,1.033,0,0,0-.151-.582,1.761,1.761,0,0,0-.379-.364,1.534,1.534,0,0,0-1.136,0,.725.725,0,0,0-.379.364,1.326,1.326,0,0,0-.151.582V6.9H39.8l-4.7-5.672a1.63,1.63,0,0,0-.265-.218A1.374,1.374,0,0,0,34.5.87,1.145,1.145,0,0,0,34.16.8a1.31,1.31,0,0,0-.568.109.725.725,0,0,0-.379.364.961.961,0,0,0-.151.582v7.6Zm-9.7,0a1.033,1.033,0,0,0,.151.582,1.761,1.761,0,0,0,.379.364,1.534,1.534,0,0,0,1.136,0,.725.725,0,0,0,.379-.364A.961.961,0,0,0,25.6,9.45V6.541h4.09V9.45a1.033,1.033,0,0,0,.151.582,1.18,1.18,0,0,0,.379.364,1.534,1.534,0,0,0,1.136,0,.725.725,0,0,0,.379-.364.961.961,0,0,0,.151-.582v-7.6a1.033,1.033,0,0,0-.151-.582,1.761,1.761,0,0,0-.379-.364,1.534,1.534,0,0,0-1.136,0,.725.725,0,0,0-.379.364.961.961,0,0,0-.151.582V4.687H25.639V1.851a1.033,1.033,0,0,0-.151-.582,1.761,1.761,0,0,0-.379-.364,1.534,1.534,0,0,0-1.136,0,.725.725,0,0,0-.379.364.961.961,0,0,0-.151.582v7.6ZM14.391,5.632A5.214,5.214,0,0,0,14.618,7.2,4.144,4.144,0,0,0,15.3,8.541,4.763,4.763,0,0,0,16.36,9.6a4.994,4.994,0,0,0,1.4.691,6.41,6.41,0,0,0,1.7.254,4.3,4.3,0,0,0,.644-.036,2.469,2.469,0,0,0,.72-.109,4.129,4.129,0,0,0,.72-.182,3.422,3.422,0,0,0,.644-.291,1.281,1.281,0,0,0,.454-.436,1.346,1.346,0,0,0,.189-.545.654.654,0,0,0-.076-.254.788.788,0,0,0-.189-.291,1.009,1.009,0,0,0-.3-.254.788.788,0,0,0-.417-.109A1.973,1.973,0,0,0,21.4,8.1c-.151.073-.3.109-.492.182a2.925,2.925,0,0,1-.606.182,2.684,2.684,0,0,1-.8.073,2.573,2.573,0,0,1-1.212-.254,2.179,2.179,0,0,1-.871-.654,2.933,2.933,0,0,1-.53-.945A3.709,3.709,0,0,1,16.7,5.56,3.947,3.947,0,0,1,16.891,4.4a3.109,3.109,0,0,1,.53-.982,2.179,2.179,0,0,1,.871-.654A3.109,3.109,0,0,1,19.5,2.506a4.918,4.918,0,0,1,.8.073c.227.036.417.109.568.145a2.2,2.2,0,0,0,.454.145,2.028,2.028,0,0,0,.417.073,1.084,1.084,0,0,0,.492-.109.651.651,0,0,0,.3-.327.937.937,0,0,0,.114-.436A1.148,1.148,0,0,0,22.5,1.56a2.129,2.129,0,0,0-.417-.4A3.071,3.071,0,0,0,21.473.87a4.729,4.729,0,0,0-.682-.182L20.11.579A3.608,3.608,0,0,0,19.5.542,5.216,5.216,0,0,0,17.8.8a4.535,4.535,0,0,0-1.4.691,4.081,4.081,0,0,0-1.06,1.054,4.544,4.544,0,0,0-.682,1.345,6.278,6.278,0,0,0-.265,1.745ZM7.915,9.413a.918.918,0,0,0,.151.545,1.332,1.332,0,0,0,.417.364,1.575,1.575,0,0,0,.568.109h3.825a.941.941,0,0,0,.568-.145.958.958,0,0,0,.341-.327.894.894,0,0,0,0-.873.729.729,0,0,0-.341-.327,1.333,1.333,0,0,0-.606-.145H10.112V6.577h2.424a1.066,1.066,0,0,0,.606-.145A1.607,1.607,0,0,0,13.52,6.1a.894.894,0,0,0,0-.873.668.668,0,0,0-.379-.327,1.474,1.474,0,0,0-.606-.145H10.112V2.8h2.651a.941.941,0,0,0,.568-.145.958.958,0,0,0,.341-.327.937.937,0,0,0,.114-.436.937.937,0,0,0-.114-.436.729.729,0,0,0-.341-.327,1.333,1.333,0,0,0-.606-.145H9.051a1.119,1.119,0,0,0-.644.145.956.956,0,0,0-.379.4,1.454,1.454,0,0,0-.114.582V9.413Zm-5.34.036a1.033,1.033,0,0,0,.151.582,1.761,1.761,0,0,0,.379.364,1.31,1.31,0,0,0,.568.109,1.31,1.31,0,0,0,.568-.109.725.725,0,0,0,.379-.364,1.326,1.326,0,0,0,.151-.582V2.724H6.4a.941.941,0,0,0,.568-.145.958.958,0,0,0,.341-.327.937.937,0,0,0,.114-.436.937.937,0,0,0-.114-.436.729.729,0,0,0-.341-.327,1.272,1.272,0,0,0-.53-.145H.985a.825.825,0,0,0-.53.145.958.958,0,0,0-.341.327A.937.937,0,0,0,0,1.815a.937.937,0,0,0,.114.436.729.729,0,0,0,.341.327,1.3,1.3,0,0,0,.568.145H2.651V9.45Zm45.483,1.127a5.216,5.216,0,0,0,1.7-.254,4.535,4.535,0,0,0,1.4-.691,4.081,4.081,0,0,0,1.06-1.054,4.544,4.544,0,0,0,.682-1.345,5.491,5.491,0,0,0,0-3.127,4.144,4.144,0,0,0-.682-1.345,4.242,4.242,0,0,0-1.1-1.054A5.32,5.32,0,0,0,48.058.761a5.216,5.216,0,0,0-1.7.254,4.535,4.535,0,0,0-1.4.691,4.081,4.081,0,0,0-1.06,1.054,4.544,4.544,0,0,0-.682,1.345,5.391,5.391,0,0,0-.227,1.563,5.214,5.214,0,0,0,.227,1.563,4.144,4.144,0,0,0,.682,1.345,4.763,4.763,0,0,0,1.06,1.054,4.994,4.994,0,0,0,1.4.691A6.907,6.907,0,0,0,48.058,10.577Z" transform="translate(0 -0.542)" fill="rgba(219,203,216,0.5)" fill-rule="evenodd"/>
    </g>
  </g>
</svg>
