<svg xmlns="http://www.w3.org/2000/svg" width="99.128" height="15.148" viewBox="0 0 99.128 15.148">
  <path id="SAMSUNG" d="M81.849,15.723l.19,11.125h-.1L78.725,15.723h-5.3V29.735h3.5l-.189-11.5h.095l3.455,11.5h5.065V15.723Zm-66.7,0L12.5,29.877h3.835L18.273,17h.095l1.894,12.876h3.787l-2.6-14.154Zm21.4,0L34.794,26.516h-.1L32.948,15.723H27.173l-.284,14.155h3.55l.095-12.735h.047l2.367,12.734h3.6l2.367-12.734h.095L39.1,29.877h3.55l-.331-14.154ZM6.533,25.853a1.986,1.986,0,0,1,.047,1.042c-.095.473-.426.947-1.373.947a1.26,1.26,0,0,1-1.42-1.278V25.191H0v1.089C0,29.451,2.509,30.4,5.16,30.4c2.556,0,4.686-.9,5.018-3.219a6.934,6.934,0,0,0,0-2.32c-.663-2.982-6.059-3.834-6.438-5.491a2.031,2.031,0,0,1,0-.758,1.153,1.153,0,0,1,1.278-.947,1.207,1.207,0,0,1,1.326,1.278v.852h3.55V18.8c0-3.077-2.793-3.55-4.781-3.55-2.509,0-4.592.852-4.97,3.124a4.292,4.292,0,0,0,.047,1.894c.568,2.935,5.634,3.787,6.343,5.586m46.062,0a1.976,1.976,0,0,1,.047,1.042c-.095.473-.426.947-1.373.947a1.26,1.26,0,0,1-1.42-1.278V25.191H46.061v1.089c0,3.124,2.462,4.071,5.113,4.071,2.556,0,4.639-.852,4.97-3.219a6.978,6.978,0,0,0,0-2.32c-.568-2.935-5.918-3.835-6.3-5.444a2.016,2.016,0,0,1,0-.758,1.153,1.153,0,0,1,1.278-.947,1.231,1.231,0,0,1,1.326,1.278v.852h3.5V18.8c0-3.077-2.745-3.55-4.733-3.55-2.509,0-4.545.8-4.923,3.124a5.134,5.134,0,0,0,.047,1.894c.568,2.935,5.539,3.74,6.249,5.586m11.929,1.894A1.289,1.289,0,0,0,65.9,26.705a1.933,1.933,0,0,0,.048-.52V15.723h3.6V25.9a5.479,5.479,0,0,1-.047.947c-.237,2.651-2.32,3.5-4.923,3.5s-4.686-.852-4.923-3.5c0-.142-.047-.663-.047-.947V15.723h3.6V26.185a1.768,1.768,0,0,0,.048.52c0,.379.284,1.042,1.278,1.042M94.063,27.6a1.369,1.369,0,0,0,1.468-1.042,1.934,1.934,0,0,0,.047-.52V24.007H94.11V21.924h5.018v3.788a7.723,7.723,0,0,1-.048.947c-.237,2.6-2.462,3.5-4.97,3.5s-4.734-.9-4.97-3.5a7.725,7.725,0,0,1-.048-.947V19.747c0-.237.048-.71.048-.947.331-2.651,2.462-3.5,4.97-3.5s4.687.852,4.97,3.5c.048.426.048.947.048.947v.473h-3.55v-.8a2.8,2.8,0,0,0-.047-.521,1.271,1.271,0,0,0-1.42-1.041,1.309,1.309,0,0,0-1.42,1.041,2.9,2.9,0,0,0-.048.663v6.485a1.768,1.768,0,0,0,.048.52c0,.379.379,1.042,1.373,1.042" transform="translate(0 -15.249)" fill="#dbcbd8"/>
</svg>
