<?xml version="1.0" encoding="UTF-8" standalone="no"?><!DOCTYPE svg PUBLIC "-//W3C//DTD SVG 1.1//EN" "http://www.w3.org/Graphics/SVG/1.1/DTD/svg11.dtd"><svg width="100%" height="100%" viewBox="0 0 750 1334" version="1.1" xmlns="http://www.w3.org/2000/svg" xmlns:xlink="http://www.w3.org/1999/xlink" xml:space="preserve" xmlns:serif="http://www.serif.com/" style="fill-rule:evenodd;clip-rule:evenodd;stroke-linejoin:round;stroke-miterlimit:2;"><rect id="dark_bg" x="0" y="813.52" width="750" height="520.48" style="fill:#564787;"/><g id="logo_v4_icon"><path id="V" d="M68.943,789.475c-0.36,-0.001 -0.675,-0.24 -0.773,-0.586c-1.047,-3.703 -4.716,-15.855 -6.073,-20.654c-0.069,-0.243 -0.02,-0.503 0.132,-0.704c0.152,-0.202 0.389,-0.32 0.641,-0.32c1.419,-0.003 3.886,-0.008 5.039,-0.01c0.369,-0.001 0.691,0.249 0.782,0.607c0.592,2.332 1.33,5.238 1.922,7.57c0.092,0.364 0.424,0.616 0.799,0.607c0.376,-0.008 0.695,-0.275 0.77,-0.643c0.609,-2.974 1.392,-6.797 1.392,-6.797l2.762,11.961c0,0 -1.452,6.319 -1.921,8.359c-0.084,0.367 -0.411,0.626 -0.787,0.625c-1.154,-0.003 -3.559,-0.011 -4.685,-0.015Z" style="fill:#9ad4d6;"/><path id="checkmark" d="M73.893,767.088c0,0 4.347,18.179 5.21,21.786c0.086,0.363 0.41,0.618 0.783,0.618c1.178,0 3.689,0 4.854,0c0.367,0 0.687,-0.247 0.78,-0.602c0.983,-3.61 6.5,-22.734 16.955,-38.132c0.235,-0.331 0.186,-0.785 -0.115,-1.058c-0.3,-0.272 -0.757,-0.278 -1.063,-0.012c-12.671,11.285 -18.828,24.627 -18.828,24.627c0,0 -0.659,-2.93 -1.319,-5.961c-0.161,-0.74 -0.817,-1.268 -1.574,-1.268c-2.019,0.001 -5.683,0.002 -5.683,0.002Z" style="fill:#564787;"/></g><g id="logo_v4_icon_dark"><path id="V1" serif:id="V" d="M68.943,870.48c-0.36,-0.001 -0.675,-0.241 -0.773,-0.586c-1.047,-3.704 -4.716,-15.856 -6.073,-20.655c-0.069,-0.242 -0.02,-0.503 0.132,-0.704c0.152,-0.201 0.389,-0.32 0.641,-0.32c1.419,-0.003 3.886,-0.008 5.039,-0.01c0.369,-0.001 0.691,0.249 0.782,0.607c0.592,2.332 1.33,5.238 1.922,7.571c0.092,0.364 0.424,0.615 0.799,0.607c0.376,-0.009 0.695,-0.276 0.77,-0.644c0.609,-2.974 1.392,-6.797 1.392,-6.797l2.762,11.962c0,0 -1.452,6.319 -1.921,8.359c-0.084,0.366 -0.411,0.626 -0.787,0.625c-1.154,-0.004 -3.559,-0.012 -4.685,-0.015Z" style="fill:#9ad4d6;"/><path id="checkmark1" serif:id="checkmark" d="M73.893,848.092c0,0 4.347,18.179 5.21,21.787c0.086,0.362 0.41,0.618 0.783,0.618c1.178,0 3.689,0 4.854,0c0.367,0 0.687,-0.248 0.78,-0.603c0.983,-3.61 6.5,-22.734 16.955,-38.132c0.235,-0.331 0.186,-0.785 -0.115,-1.057c-0.3,-0.273 -0.757,-0.278 -1.063,-0.013c-12.671,11.285 -18.828,24.627 -18.828,24.627c0,0 -0.659,-2.929 -1.319,-5.961c-0.161,-0.74 -0.817,-1.268 -1.574,-1.267c-2.019,0 -5.683,0.001 -5.683,0.001Z" style="fill:#fff;"/></g></svg>