<?xml version="1.0" encoding="UTF-8" standalone="no"?><!DOCTYPE svg PUBLIC "-//W3C//DTD SVG 1.1//EN" "http://www.w3.org/Graphics/SVG/1.1/DTD/svg11.dtd"><svg width="100%" height="100%" viewBox="0 0 41 40" version="1.1" xmlns="http://www.w3.org/2000/svg" xmlns:xlink="http://www.w3.org/1999/xlink" xml:space="preserve" xmlns:serif="http://www.serif.com/" style="fill-rule:evenodd;clip-rule:evenodd;stroke-linejoin:round;stroke-miterlimit:2;"><g id="logo_v4_icon"><path id="V" d="M6.876,39.983c-0.359,-0.001 -0.674,-0.24 -0.772,-0.586c-1.047,-3.704 -4.717,-15.856 -6.074,-20.654c-0.068,-0.243 -0.019,-0.504 0.133,-0.705c0.151,-0.201 0.389,-0.319 0.641,-0.32c1.418,-0.003 3.885,-0.007 5.038,-0.01c0.369,0 0.692,0.25 0.782,0.607c0.593,2.333 1.33,5.239 1.922,7.571c0.093,0.364 0.424,0.616 0.8,0.607c0.375,-0.009 0.694,-0.276 0.77,-0.643c0.609,-2.974 1.392,-6.798 1.392,-6.798l2.761,11.962c0,0 -1.452,6.319 -1.921,8.359c-0.084,0.367 -0.411,0.626 -0.787,0.625c-1.153,-0.004 -3.558,-0.011 -4.685,-0.015Z" style="fill:#9ad4d6;"/><path id="checkmark" d="M11.826,17.595c0,0 4.348,18.18 5.21,21.787c0.087,0.362 0.411,0.618 0.783,0.618c1.179,0 3.689,0 4.855,0c0.367,0 0.687,-0.248 0.779,-0.602c0.983,-3.61 6.5,-22.734 16.955,-38.133c0.235,-0.33 0.186,-0.784 -0.114,-1.057c-0.301,-0.273 -0.757,-0.278 -1.064,-0.012c-12.67,11.285 -18.827,24.626 -18.827,24.626c0,0 -0.66,-2.929 -1.32,-5.96c-0.161,-0.74 -0.816,-1.268 -1.574,-1.268c-2.019,0 -5.683,0.001 -5.683,0.001Z" style="fill:#564787;"/></g></svg>