<svg id="night_mode_select" xmlns="http://www.w3.org/2000/svg" width="24" height="24" viewBox="0 0 24 24">
  <g id="Exclusion-1">
    <path id="Path_6" d="M12,24a4.056,4.056,0,0,1-2.886-1.2L7.992,21.684H6.911a4.6,4.6,0,0,1-4.592-4.592v-1.08L1.2,14.89a4.087,4.087,0,0,1,0-5.772L2.319,8V6.912A4.6,4.6,0,0,1,6.911,2.321H7.99L9.112,1.2a4.082,4.082,0,0,1,5.772,0l1.122,1.122h1.08a4.6,4.6,0,0,1,4.592,4.592v1.08L22.8,9.114a4.082,4.082,0,0,1,0,5.772l-1.122,1.122v1.08a4.6,4.6,0,0,1-4.592,4.592H16.01L14.887,22.8A4.055,4.055,0,0,1,12,24ZM12,4.374a7.627,7.627,0,1,0,2.493,14.838,7.631,7.631,0,0,1,0-14.421A7.616,7.616,0,0,0,12,4.374Z" transform="translate(-0.003 -0.003)"/>
  </g>
  <rect id="Rectangle_7" width="24" height="24" fill="none" opacity="0"/>
</svg>
