<svg id="trash_icon" xmlns="http://www.w3.org/2000/svg" width="40" height="40" viewBox="0 0 40 40">
  <g id="trash-simple" transform="translate(9 8)">
    <path id="Path_41" d="M7,13V27.278a.892.892,0,0,0,.892.892H21.278a.892.892,0,0,0,.892-.892V13Zm4.462,11.155a.446.446,0,0,1-.892,0V17.016a.446.446,0,1,1,.892,0Zm3.57,0a.446.446,0,0,1-.892,0V17.016a.446.446,0,1,1,.892,0Zm3.57,0a.446.446,0,0,1-.892,0V17.016a.446.446,0,1,1,.892,0Z" transform="translate(-3.323 -6.646)"/>
    <path id="Path_42" d="M21.079,4.57h-5.8V1.446A.446.446,0,0,0,14.832,1H7.693a.446.446,0,0,0-.446.446V4.57h-5.8a.446.446,0,0,0,0,.892H21.079a.446.446,0,0,0,0-.892Zm-6.693,0H8.139V1.892h6.247Z"/>
  </g>
</svg>
