<svg width="36px" height="36px" viewBox="0 0 36 36" version="1.1" xmlns="http://www.w3.org/2000/svg" xmlns:xlink="http://www.w3.org/1999/xlink" xml:space="preserve" xmlns:serif="http://www.serif.com/" style="fill-rule:evenodd;clip-rule:evenodd;stroke-linejoin:round;stroke-miterlimit:2;"><g id="vk"><path id="Icon_awesome-vk" d="M32.569,10.019c0.216,-0.731 0,-1.269 -1.041,-1.269l-3.449,0c-0.661,-0.048 -1.277,0.353 -1.5,0.977c-1.068,2.539 -2.494,4.911 -4.234,7.046c-0.8,0.8 -1.17,1.058 -1.608,1.058c-0.216,0 -0.55,-0.257 -0.55,-0.988l0,-6.824c0,-0.877 -0.246,-1.269 -0.971,-1.269l-5.406,0c-0.016,-0.001 -0.031,-0.001 -0.047,-0.001c-0.441,0 -0.808,0.35 -0.83,0.79c0,0.83 1.24,1.023 1.368,3.362l0,5.076c0,1.111 -0.2,1.316 -0.637,1.316c-1.17,0 -4.011,-4.292 -5.7,-9.2c-0.335,-0.957 -0.669,-1.343 -1.552,-1.343l-3.444,0c-0.982,0 -1.181,0.462 -1.181,0.977c0,0.912 1.17,5.444 5.444,11.432c2.848,4.088 6.859,6.3 10.508,6.3c2.193,0 2.462,-0.491 2.462,-1.339c0,-3.906 -0.2,-4.275 0.9,-4.275c0.509,0 1.386,0.257 3.433,2.228c2.339,2.339 2.725,3.386 4.035,3.386l3.444,0c0.982,0 1.479,-0.491 1.193,-1.462c-0.655,-2.041 -5.082,-6.239 -5.28,-6.52c-0.509,-0.655 -0.363,-0.947 0,-1.532c0.006,-0.006 4.21,-5.924 4.643,-7.929l0,0.003Z" style="fill-rule:nonzero;"/></g></svg>