<?xml version="1.0" encoding="UTF-8" standalone="no"?><!DOCTYPE svg PUBLIC "-//W3C//DTD SVG 1.1//EN" "http://www.w3.org/Graphics/SVG/1.1/DTD/svg11.dtd"><svg width="100%" height="100%" viewBox="0 0 40 40" version="1.1" xmlns="http://www.w3.org/2000/svg" xmlns:xlink="http://www.w3.org/1999/xlink" xml:space="preserve" xmlns:serif="http://www.serif.com/" style="fill-rule:evenodd;clip-rule:evenodd;"><g id="Rectangle_39" opacity="0"><rect x="0" y="0" width="40" height="40" style="fill:none;"/><rect x="0.5" y="0.5" width="39" height="39" style="fill:none;stroke:#707070;stroke-width:1px;"/></g><g id="Group_27"><path id="Path_23" d="M20.349,11.509l7.373,7.388l-4.708,-0.376l0.107,3.749l-7.678,-8.268" style="fill:#9ad4d6;fill-rule:nonzero;stroke:#564787;stroke-width:1px;stroke-linecap:round;stroke-linejoin:round;"/><path id="Path_20" d="M37.616,36.434c0,0 2.294,-7.4 -1.355,-11.417c-3.085,-3.393 -9.436,-3.91 -12.668,2.607c-4.379,-5.057 -10.75,-3.867 -12.3,1.929c-4.479,-2.388 -8.719,-0.469 -8.9,6.881" style="fill:#dbcbd8;fill-rule:nonzero;stroke:#564787;stroke-width:1px;stroke-linecap:round;stroke-linejoin:round;"/><path id="Path_22" d="M10.959,12.494l-5.076,10.189l4.2,-1.475l0.73,4.368l3.462,-7.235" style="fill:#9ad4d6;fill-rule:nonzero;stroke:#564787;stroke-width:1px;stroke-linecap:round;stroke-linejoin:round;"/><g id="Ellipse_7"><path d="M13.813,3.275c3.021,-0.318 5.732,1.875 6.05,4.895c0.319,3.021 -1.874,5.732 -4.895,6.05c-3.02,0.319 -5.731,-1.874 -6.05,-4.895c-0.318,-3.02 1.875,-5.731 4.895,-6.05Z" style="fill:none;"/><path d="M13.866,3.773c2.746,-0.29 5.21,1.704 5.5,4.45c0.29,2.746 -1.704,5.21 -4.45,5.5c-2.746,0.29 -5.21,-1.704 -5.5,-4.45c-0.29,-2.746 1.704,-5.21 4.45,-5.5Z" style="fill:none;stroke:#564787;stroke-width:1px;"/></g><path id="Path_21" d="M12.688,11.658c-0.014,-0.124 0.211,-2.203 0.211,-2.203l-1.485,-1.23l1.906,-0.627l0.906,-1.761l1.157,1.554l1.985,0.206l-1.093,1.701l0.47,1.933l-2.158,-0.823l-1.899,1.25Z" style="fill:#dbcbd8;fill-rule:nonzero;stroke:#564787;stroke-width:1px;stroke-linejoin:round;"/></g></svg>