<svg version="1" xmlns="http://www.w3.org/2000/svg" width="682.667" height="682.667" viewBox="0 0 512.000000 512.000000"><path d="M497.3 1.3c-2.9 1.6-27.5 25-44.4 42.2-14.4 14.7-14.7 15-27.4 29-4.4 4.9-8.5 9.3-9 9.9-.6.6-3.7 4.2-7 8.1-3.3 3.8-6.2 7.2-6.5 7.5-.3.3-4.6 5.4-9.6 11.5-33.7 40.9-61 79.2-92.3 129-9 14.5-27.6 47.5-36.2 64.6-8.1 15.9-7.3 15.5-9.4 4.7-.3-1.6-1.2-5.8-2.1-9.5-.9-3.8-2.7-11.8-4-17.8-1.2-6.1-3-13.9-3.7-17.5-.8-3.6-2.4-10.8-3.6-15.9-2.6-11.6-5.3-16-12-19.4l-5.1-2.5-38-.1c-21 0-37.9.3-37.6.7.3.5.8 2.4 1.1 4.3.3 1.9.8 4.2 1.1 5.1.3.9.7 2.5.9 3.5.2 1 2 8.5 4 16.8 5.2 22 8.5 36 10.6 45 1 4.4 3.4 14.7 5.4 23 1.9 8.2 5.3 22.6 7.5 32 5.8 24.6 11.3 48 15 63.5 1.8 7.4 3.3 14.2 3.5 15 .2.8 1.9 8.2 3.9 16.4s3.8 15.8 4 17c2.3 11.7 9.1 37.6 10.3 39.6 3.2 4.9 2.9 4.9 38.1 5 32.3 0 33.5 0 36.8-2.1 2.7-1.6 3.7-3.2 5-7.7C328.5 390 367.2 286 413.5 188.5c10.1-21.4 34.3-69 36.5-72 .5-.6 2.2-3.7 4-7 6.6-12.4 9.6-17.5 21.3-37.5 6.7-11.3 17-28.2 23.1-37.5 6-9.4 11.6-18.8 12.5-21 1.3-3.6 1.2-4.4-.3-7.7-2.5-5.1-8.5-7.2-13.3-4.5zM17 227c-11.6.6-14.1 1.5-15.9 5.9-1.7 3.9-1.5 4.5 7.4 35.1 4.2 14.6 13.2 45.6 20 69 11.5 39.7 16.4 56.7 28 96.5 8.3 28.5 17.7 60.9 19.2 66.5 1 3.5 2.7 6.6 4.7 8.6l3.2 3.1 32.3.1c28.4.2 32.7 0 35.1-1.5 3.7-2.2 4.5-4.1 8.1-20.1 1.7-7.6 3.3-14.5 3.5-15.5.2-.9.6-2.7.9-4 2.4-11.2 4.8-21.7 5.5-24.2.5-1.7 1.1-4.4 1.3-6 .3-1.7 1.2-6.2 2.2-10 .9-3.9 1.8-7.7 2-8.5.2-.8 1.5-6.6 2.9-12.8 3-12.8 3.2-10.7-2.9-37.2-2-8.5-3.8-16.4-4.1-17.5-.7-3.3-1-5-6.9-30.5-3-13.5-5.7-25.4-5.9-26.5-.2-1.1-.9-3.8-1.4-6-.6-2.2-1.3-5.1-1.6-6.5-.8-4.4-4.5-20.4-5.5-23.8-.5-1.8-1-3.3-.9-3.5 0-.1-.6-3-1.2-6.5-1.3-6.2-2.1-7.1-2.7-2.9-1.2 8-16.7 82.7-17.6 84.9-2.2 5.2-9.4 7.4-14.3 4.2-2.2-1.5-6.2-7.4-5-7.4.3 0 0-1.5-.5-3.3-.6-1.7-1.2-4.3-1.5-5.7-.3-1.4-1.2-4.8-2-7.6s-1.7-6.1-1.9-7.3c-.6-2.7-.9-3.8-3.5-14.1-1.1-4.7-2.2-9.2-2.4-10-.2-.8-1.8-7.1-3.6-14-1.7-6.9-3.3-13.2-3.5-14-1.1-5.4-4.7-18.9-5.6-21.2-2.3-5.7-3.9-6-30.8-6.2-13.5 0-29.3.1-35.1.4z"/></svg>